<?xml version="1.0" encoding="UTF-8" standalone="no"?>
<!-- Created with Inkscape (http://www.inkscape.org/) -->

<svg
   id="svg2"
   viewBox="0 0 305.07651 397.9025"
   version="1.0"
   sodipodi:docname="black-pawn.svg"
   width="305.07651"
   height="397.9025"
   inkscape:version="1.2.2 (b0a8486541, 2022-12-01)"
   xmlns:inkscape="http://www.inkscape.org/namespaces/inkscape"
   xmlns:sodipodi="http://sodipodi.sourceforge.net/DTD/sodipodi-0.dtd"
   xmlns="http://www.w3.org/2000/svg"
   xmlns:svg="http://www.w3.org/2000/svg"
   xmlns:rdf="http://www.w3.org/1999/02/22-rdf-syntax-ns#"
   xmlns:cc="http://creativecommons.org/ns#"
   xmlns:dc="http://purl.org/dc/elements/1.1/">
  <defs
     id="defs1134" />
  <sodipodi:namedview
     id="namedview1132"
     pagecolor="#ffffff"
     bordercolor="#000000"
     borderopacity="0.25"
     inkscape:showpageshadow="2"
     inkscape:pageopacity="0.0"
     inkscape:pagecheckerboard="0"
     inkscape:deskcolor="#d1d1d1"
     showgrid="false"
     inkscape:zoom="1.2837302"
     inkscape:cx="-72.445131"
     inkscape:cy="199.02937"
     inkscape:window-width="1920"
     inkscape:window-height="1007"
     inkscape:window-x="0"
     inkscape:window-y="0"
     inkscape:window-maximized="1"
     inkscape:current-layer="g2407" />
  <g
     id="layer1"
     transform="translate(-576.19075,-53.0475)">
    <g
       id="g2393"
       transform="translate(17.839,-202.89)">
      <path
         id="path2505"
         style="fill:#000000"
         d="m 559.76,645.59 c -2.22,-13.35 -1.75,-39.94 0.95,-53.48 8.23,-41.36 32.37,-77.37 66.68,-99.5 10.97,-7.08 21.38,-12.03 36.5,-17.38 0.93,-0.33 -1.53,-2.1 -6.5,-4.68 -11.96,-6.21 -22.72,-17.3 -28.86,-29.73 -6.01,-12.17 -8,-21.41 -7.32,-33.98 0.97,-18.05 7.66,-32.94 20.68,-46.02 11.64,-11.7 30.03,-19.98 44.36,-19.98 h 5.03 l -5.44,-2.7 c -7.1,-3.51 -15.86,-12.34 -19.34,-19.46 -7.98,-16.38 -4.91,-35.67 7.68,-48.26 19.31,-19.31 54.11,-19.31 73.42,0 12.59,12.59 15.66,31.88 7.68,48.26 -3.47,7.12 -12.24,15.95 -19.33,19.46 l -5.45,2.7 h 5.04 c 14.33,0 32.71,8.28 44.35,19.98 13.02,13.08 19.71,27.97 20.69,46.02 0.68,12.57 -1.31,21.81 -7.32,33.98 -6.14,12.43 -16.91,23.52 -28.87,29.73 -4.97,2.58 -7.43,4.35 -6.5,4.68 15.13,5.35 25.53,10.3 36.5,17.38 34.32,22.13 58.45,58.14 66.68,99.5 2.7,13.54 3.17,40.13 0.95,53.48 l -1.37,8.25 H 710.89 561.14 Z" />
    </g>
    <g
       id="g2407"
       transform="translate(-351.11,-272.99)" />
  </g>
  <metadata
     id="metadata1129">
    <rdf:RDF>
      <cc:Work>
        <dc:format>image/svg+xml</dc:format>
        <dc:type
           rdf:resource="http://purl.org/dc/dcmitype/StillImage" />
        <cc:license
           rdf:resource="http://creativecommons.org/publicdomain/zero/1.0/" />
        <dc:publisher>
          <cc:Agent
             rdf:about="http://openclipart.org/">
            <dc:title>Openclipart</dc:title>
          </cc:Agent>
        </dc:publisher>
        <dc:date>2008-08-26T09:02:55</dc:date>
        <dc:description>A light and dark (black and white) pawn for use in chess board templates. Source: http://commons.wikimedia.org/wiki/Image:Chess_tile_pl.png http://commons.wikimedia.org/wiki/Image:Chess_tile_pd.png</dc:description>
        <dc:source>https://openclipart.org/detail/18647/chess-tile---pawn-by-portablejim</dc:source>
        <dc:creator>
          <cc:Agent>
            <dc:title>portablejim</dc:title>
          </cc:Agent>
        </dc:creator>
        <dc:subject>
          <rdf:Bag>
            <rdf:li>black</rdf:li>
            <rdf:li>chess</rdf:li>
            <rdf:li>externalsource</rdf:li>
            <rdf:li>game</rdf:li>
            <rdf:li>icon</rdf:li>
            <rdf:li>pawn</rdf:li>
            <rdf:li>white</rdf:li>
          </rdf:Bag>
        </dc:subject>
      </cc:Work>
      <cc:License
         rdf:about="http://creativecommons.org/publicdomain/zero/1.0/">
        <cc:permits
           rdf:resource="http://creativecommons.org/ns#Reproduction" />
        <cc:permits
           rdf:resource="http://creativecommons.org/ns#Distribution" />
        <cc:permits
           rdf:resource="http://creativecommons.org/ns#DerivativeWorks" />
      </cc:License>
    </rdf:RDF>
  </metadata>
</svg>
