<?xml version="1.0" encoding="UTF-8" standalone="no"?>
<!-- Created with Inkscape (http://www.inkscape.org/) -->

<svg
   id="svg2"
   viewBox="0 0 324 378"
   version="1.0"
   sodipodi:docname="black-rook.svg"
   width="324"
   height="378"
   inkscape:version="1.2.2 (b0a8486541, 2022-12-01)"
   xmlns:inkscape="http://www.inkscape.org/namespaces/inkscape"
   xmlns:sodipodi="http://sodipodi.sourceforge.net/DTD/sodipodi-0.dtd"
   xmlns="http://www.w3.org/2000/svg"
   xmlns:svg="http://www.w3.org/2000/svg"
   xmlns:rdf="http://www.w3.org/1999/02/22-rdf-syntax-ns#"
   xmlns:cc="http://creativecommons.org/ns#"
   xmlns:dc="http://purl.org/dc/elements/1.1/">
  <defs
     id="defs1401" />
  <sodipodi:namedview
     id="namedview1399"
     pagecolor="#ffffff"
     bordercolor="#000000"
     borderopacity="0.25"
     inkscape:showpageshadow="2"
     inkscape:pageopacity="0.0"
     inkscape:pagecheckerboard="0"
     inkscape:deskcolor="#d1d1d1"
     showgrid="false"
     inkscape:zoom="1.2837302"
     inkscape:cx="-65.434312"
     inkscape:cy="188.90263"
     inkscape:window-width="1920"
     inkscape:window-height="1007"
     inkscape:window-x="0"
     inkscape:window-y="0"
     inkscape:window-maximized="1"
     inkscape:current-layer="layer1" />
  <g
     id="layer1"
     transform="translate(-569.794,-63)">
    <g
       id="g2399"
       transform="translate(-43.916,-225.65)">
      <path
         id="path2406"
         style="fill:#000000"
         d="M 90,422.5 V 404 h 12.5 12.5 v -21.35 -21.36 l 21,-22.36 21,-22.36 V 242.01 167.45 L 132.56,148.98 108.11,130.5 108.06,96.75 108,63 h 28.5 28.5 v 15 15 h 26 26 V 78 63 h 35 35 v 15 15 h 26 26 V 78 63 H 367.5 396 L 395.95,96.75 395.9,130.5 371.45,149 347,167.5 v 74.7 74.69 l 20.97,22.31 20.97,22.3 0.03,21.25 L 389,404 H 401.5 414 V 422.5 441 H 252 90 Z"
         transform="translate(523.71,225.65)" />
      <path
         id="path2392"
         style="fill:#ffffff"
         d="m 387.55,134.55 c 1.35,-1.35 2.45,-3.62 2.45,-5.05 0,-1.42 -1.1,-3.7 -2.45,-5.05 L 385.09,122 H 252 118.91 l -2.46,2.45 c -1.35,1.35 -2.45,3.63 -2.45,5.05 0,1.42 1.1,3.7 2.45,5.05 l 2.46,2.45 H 252 385.09 Z"
         transform="translate(523.71,225.65)" />
      <path
         id="path2390"
         style="fill:#ffffff"
         d="m 337.55,172.55 c 1.35,-1.35 2.45,-3.62 2.45,-5.05 0,-1.42 -1.1,-3.7 -2.45,-5.05 L 335.09,160 H 252 168.91 l -2.46,2.45 c -1.35,1.35 -2.45,3.63 -2.45,5.05 0,1.42 1.1,3.7 2.45,5.05 l 2.46,2.45 H 252 335.09 Z"
         transform="translate(523.71,225.65)" />
      <path
         id="path2388"
         style="fill:#ffffff"
         d="m 337.55,321.55 c 1.35,-1.35 2.45,-3.62 2.45,-5.05 0,-1.42 -1.1,-3.7 -2.45,-5.05 L 335.09,309 H 252 168.91 l -2.46,2.45 c -1.35,1.35 -2.45,3.63 -2.45,5.05 0,1.43 1.1,3.7 2.45,5.05 l 2.46,2.45 H 252 335.09 Z"
         transform="translate(523.71,225.65)" />
      <path
         id="path2386"
         style="fill:#ffffff"
         d="m 379.09,367.72 c 4.34,-3.34 4.6,-8.07 0.64,-11.75 C 377.66,354.03 375.52,354 252,354 c -123.52,0 -125.66,0.03 -127.73,1.97 -3.96,3.68 -3.7,8.41 0.64,11.75 2.31,1.77 251.87,1.77 254.18,0 z"
         transform="translate(523.71,225.65)" />
      <path
         id="path2384"
         style="fill:#ffffff"
         d="m 379.09,409.72 c 4.34,-3.34 4.6,-8.07 0.64,-11.75 C 377.66,396.03 375.52,396 252,396 c -123.52,0 -125.66,0.03 -127.73,1.97 -3.96,3.68 -3.7,8.41 0.64,11.75 2.31,1.77 251.87,1.77 254.18,0 z"
         transform="translate(523.71,225.65)" />
    </g>
  </g>
  <metadata
     id="metadata1396">
    <rdf:RDF>
      <cc:Work>
        <dc:format>image/svg+xml</dc:format>
        <dc:type
           rdf:resource="http://purl.org/dc/dcmitype/StillImage" />
        <cc:license
           rdf:resource="http://creativecommons.org/publicdomain/zero/1.0/" />
        <dc:publisher>
          <cc:Agent
             rdf:about="http://openclipart.org/">
            <dc:title>Openclipart</dc:title>
          </cc:Agent>
        </dc:publisher>
        <dc:date>2008-08-26T09:10:40</dc:date>
        <dc:description>A light and dark (black and white) rook for use in chess board templates. Source: http://commons.wikimedia.org/wiki/Image:Chess_tile_rl.png http://commons.wikimedia.org/wiki/Image:Chess_tile_rd.png</dc:description>
        <dc:source>https://openclipart.org/detail/18653/chess-tile---rook-by-portablejim</dc:source>
        <dc:creator>
          <cc:Agent>
            <dc:title>portablejim</dc:title>
          </cc:Agent>
        </dc:creator>
        <dc:subject>
          <rdf:Bag>
            <rdf:li>black</rdf:li>
            <rdf:li>chess</rdf:li>
            <rdf:li>externalsource</rdf:li>
            <rdf:li>game</rdf:li>
            <rdf:li>icon</rdf:li>
            <rdf:li>rook</rdf:li>
            <rdf:li>white</rdf:li>
          </rdf:Bag>
        </dc:subject>
      </cc:Work>
      <cc:License
         rdf:about="http://creativecommons.org/publicdomain/zero/1.0/">
        <cc:permits
           rdf:resource="http://creativecommons.org/ns#Reproduction" />
        <cc:permits
           rdf:resource="http://creativecommons.org/ns#Distribution" />
        <cc:permits
           rdf:resource="http://creativecommons.org/ns#DerivativeWorks" />
      </cc:License>
    </rdf:RDF>
  </metadata>
</svg>
